<mxfile host="app.diagrams.net" modified="2023-12-23T06:16:45.239Z" agent="Mozilla/5.0 (Windows NT 10.0; Win64; x64) AppleWebKit/537.36 (KHTML, like Gecko) Chrome/120.0.0.0 Safari/537.36 Edg/120.0.0.0" version="21.6.8" etag="mAU-yGSe0g7tONpsjeNG" type="github">
  <diagram name="第 1 页" id="7XWwsuP2iNXD88dUWqFm">
    <mxGraphModel>
      <root>
        <mxCell id="0" />
        <mxCell id="1" parent="0" />
      </root>
    </mxGraphModel>
  </diagram>
</mxfile>
